<svg xmlns="http://www.w3.org/2000/svg" width="136.96" height="26.303" viewBox="0 0 136.96 26.3"><g data-name="Group 42659"><path fill="none" d="M71.96 0h65v24h-65z"/><g data-name="Group 3"><g data-name="dubizzle UAE Classifieds - Best place to rent a property, sell a car or find a job in UAE-3"><g data-name="Group 2"><g fill-rule="evenodd" data-name="Group 1"><path fill="#212223" d="M114.9 12.06a6.46 6.46 0 0 0-.89 1.07 54.26 54.26 0 0 0-2.4 3.34 18.17 18.17 0 0 0-1.13 1.78h4.53v1.8h-7v-1.37c.32-.49.57-1 .94-1.59s.75-1.14 1.14-1.72.78-1.15 1.16-1.68l1.02-1.38-4.04.01v-1.8h6.68zm8.28 0l-.86 1.07a55.84 55.84 0 0 0-2.37 3.34 18.12 18.12 0 0 0-1.12 1.78h4.45v1.8h-6.9v-1.37c.33-.48.57-1 .94-1.59a108.38 108.38 0 0 1 2.28-3.4l1.02-1.38-4.02.01v-1.8h6.58zm3.92-6h-.02a5.3 5.3 0 0 0-2.2.61v13.39h2.22zm7.65 8.27a2.8 2.8 0 0 0-.13-.86 2.08 2.08 0 0 0-.37-.7 1.76 1.76 0 0 0-.6-.5 1.92 1.92 0 0 0-.85-.16 1.98 1.98 0 0 0-.9.2 2.04 2.04 0 0 0-.64.51 2.26 2.26 0 0 0-.4.72 3.32 3.32 0 0 0-.2.82zm-6.4 1a6 6 0 0 1 .37-2.21 4.63 4.63 0 0 1 1-1.58 4.1 4.1 0 0 1 1.42-.95 4.4 4.4 0 0 1 1.64-.32 3.93 3.93 0 0 1 3.08 1.22 5.3 5.3 0 0 1 1.1 3.66l-.01.38-.03.4h-6.3a2.42 2.42 0 0 0 .8 1.8 3.09 3.09 0 0 0 2.1.63 6.87 6.87 0 0 0 1.47-.14 6.09 6.09 0 0 0 1.05-.3l.3 1.8a3.54 3.54 0 0 1-.5.2 7.08 7.08 0 0 1-.74.18q-.4.08-.88.14a8.43 8.43 0 0 1-.97.05 5.86 5.86 0 0 1-2.2-.37 4.07 4.07 0 0 1-1.53-1.04 4.26 4.26 0 0 1-.89-1.57 6.4 6.4 0 0 1-.3-2zM88.5 10.5v5a4.07 4.07 0 0 1-.42 2.2 1.73 1.73 0 0 1-1.54.65A1.7 1.7 0 0 1 85 17.7a4.07 4.07 0 0 1-.42-2.2v-5h-2.23v5.36a7.42 7.42 0 0 0 .2 1.78 3.58 3.58 0 0 0 .66 1.4 3.07 3.07 0 0 0 1.23.9 5.92 5.92 0 0 0 2.1.33 5.93 5.93 0 0 0 2.1-.32 3.08 3.08 0 0 0 1.25-.9 3.57 3.57 0 0 0 .65-1.41 7.43 7.43 0 0 0 .2-1.78V10.5zm-14.28 4.74a3.92 3.92 0 0 1 .56-2.23 1.98 1.98 0 0 1 1.76-.82 3.1 3.1 0 0 1 1.02.16 3.4 3.4 0 0 1 .76.37v5.5a3.94 3.94 0 0 1-.6.1 7.49 7.49 0 0 1-.9.05 2.35 2.35 0 0 1-1.9-.83 3.47 3.47 0 0 1-.7-2.3m-1.92 2.11a4.48 4.48 0 0 0 .96 1.58 4.16 4.16 0 0 0 1.53 1 5.57 5.57 0 0 0 2.03.35 12.77 12.77 0 0 0 2.08-.17 12.37 12.37 0 0 0 1.65-.37V6.05a5.3 5.3 0 0 0-2.22.62v4.16a4.06 4.06 0 0 0-.94-.36 4.29 4.29 0 0 0-1.22-.17 4.33 4.33 0 0 0-1.8.36 3.52 3.52 0 0 0-1.32 1.01 4.68 4.68 0 0 0-.8 1.58 6.92 6.92 0 0 0-.3 2.04 6 6 0 0 0 .35 2.07zm25.87.2a2.36 2.36 0 0 1-1.92.82 7.45 7.45 0 0 1-.9-.05 4.02 4.02 0 0 1-.6-.1v-5.5a3.45 3.45 0 0 1 .77-.36 3.15 3.15 0 0 1 1.03-.17 1.97 1.97 0 0 1 1.76.83 3.92 3.92 0 0 1 .56 2.22 3.47 3.47 0 0 1-.7 2.3m2.68-4.3a4.68 4.68 0 0 0-.8-1.58 3.52 3.52 0 0 0-1.34-1.02 4.35 4.35 0 0 0-1.8-.35 4.28 4.28 0 0 0-1.22.14 4.12 4.12 0 0 0-.93.37V6.06h-.03a5.29 5.29 0 0 0-2.2.62v13.1a12.46 12.46 0 0 0 1.66.36 12.82 12.82 0 0 0 2.09.16 5.57 5.57 0 0 0 2.02-.34 4.16 4.16 0 0 0 1.53-1 4.48 4.48 0 0 0 .96-1.58 6 6 0 0 0 .34-2.08 6.92 6.92 0 0 0-.28-2.06m3.58-2.75a3.92 3.92 0 0 0-1.33.18 1.09 1.09 0 0 0-.56.94c0 .37.12 3.4.17 3.68s.35.1.48.85.45 3.95.53 4.03a1.4 1.4 0 0 0 1.45 0c.08-.08.4-3.28.52-4.03s.44-.56.5-.85.16-3.31.16-3.7a1.1 1.1 0 0 0-.57-.93 3.8 3.8 0 0 0-1.32-.2h-.05m1.33-1.7a1.27 1.27 0 1 1-1.27-1.26 1.27 1.27 0 0 1 1.27 1.27"/><path fill="#e00000" d="M103.76 4.1c.67-.55 1.7-1.58 1.7-2.37a2.32 2.32 0 0 0-.64-1.73s.28.94-1.9 2.94c-1.87 1.72-1.6 3.3-1.6 3.4a3.45 3.45 0 0 0 1.16 2.55 2.8 2.8 0 0 1-.45-1.47 4.06 4.06 0 0 1 1.73-3.32"/><path fill="#e00000" d="M107.3 7.56c-.03-.95-.33-1.02-.69-1.87-.5-1.35.36-2.52-.6-3.96-.28 1.84-1.65 2.37-2.64 3.55a2.9 2.9 0 0 0-.62 2.94 1.82 1.82 0 1 1 3.24 1.6 2.3 2.3 0 0 0 1.32-2.26"/></g></g></g></g></g><path fill="#7e7e7e" d="M52.06 20h1.06v-1.15a3 3 0 0 0 2.54 1.33 3.55 3.55 0 0 0 3.55-3.8c.03-2.25-1.39-3.84-3.44-3.84a3 3 0 0 0-2.57 1.36V9.88h-1.1zm1.06-3.61a2.55 2.55 0 0 1 2.5-2.84 2.57 2.57 0 0 1 2.46 2.84 2.56 2.56 0 0 1-2.5 2.8 2.56 2.56 0 0 1-2.46-2.8zm9.52 6.12l3.91-9.79h-1.18l-2.24 5.85-2.3-5.85h-1.2l2.96 7.21-1.05 2.58z"/><path fill="#003035" d="M22.7 26.3V1.35h5.93V26.3zM0 13.83a10.28 10.28 0 1 1 0 .02zm7.17 0a3.12 3.12 0 1 0 3.13-3.13 3.12 3.12 0 0 0-3.13 3.12zm32.44 6.24l-2.26-2.25-2.25 2.26h-3.98v-3.95l2.28-2.28-2.28-2.28v-4h3.93l2.3 2.31 2.32-2.3h3.93v4l-2.28 2.28 2.28 2.28v3.93z"/></svg>